<mxfile host="65bd71144e">
    <diagram id="yu_-T-Nv_9ZeTJxV-tZ1" name="CI">
        <mxGraphModel dx="2260" dy="3722" grid="1" gridSize="10" guides="1" tooltips="1" connect="1" arrows="1" fold="1" page="1" pageScale="1" pageWidth="850" pageHeight="1100" math="0" shadow="0">
            <root>
                <mxCell id="0"/>
                <mxCell id="elJny6PjDvqjJBfrdGJf-236" value="bg" style="locked=1;" parent="0"/>
                <mxCell id="elJny6PjDvqjJBfrdGJf-238" value="" style="rounded=0;whiteSpace=wrap;html=1;strokeColor=none;fillColor=light-dark(#181818,#181818);fontColor=#f4f4f4;align=left;verticalAlign=top;" parent="elJny6PjDvqjJBfrdGJf-236" vertex="1">
                    <mxGeometry x="170" y="-1180" width="1050" height="1860" as="geometry"/>
                </mxCell>
                <mxCell id="302" value="&lt;font style=&quot;font-size: 22px;&quot;&gt;&amp;nbsp;Ledger&lt;/font&gt;" style="rounded=0;whiteSpace=wrap;html=1;strokeColor=none;fillColor=light-dark(#242424,#343434);fontColor=light-dark(#F4F4F4,#A4A4A4);align=left;verticalAlign=top;" parent="elJny6PjDvqjJBfrdGJf-236" vertex="1">
                    <mxGeometry x="990" y="-1150" width="200" height="240" as="geometry"/>
                </mxCell>
                <mxCell id="1" value="fg" style="" parent="0"/>
                <mxCell id="304" value="&amp;nbsp; Master-PR Pipeline&amp;nbsp; &amp;nbsp; &amp;nbsp; &amp;nbsp; &amp;nbsp; &amp;nbsp; &amp;nbsp; &amp;nbsp; &amp;nbsp; &amp;nbsp; &amp;nbsp; &amp;nbsp;&lt;font style=&quot;&quot;&gt;1&lt;/font&gt;" style="rounded=0;whiteSpace=wrap;html=1;fillColor=none;strokeColor=light-dark(#93B6E6,#93B6E6);fontColor=light-dark(#93B6E6,#93B6E6);fontStyle=1;dashed=1;dashPattern=8 8;align=left;verticalAlign=top;fontSize=15;" parent="1" vertex="1">
                    <mxGeometry x="220" y="-680" width="260" height="490" as="geometry"/>
                </mxCell>
                <mxCell id="224" style="edgeStyle=none;html=1;entryX=0.5;entryY=0;entryDx=0;entryDy=0;rounded=0;strokeColor=light-dark(#F4F4F4,#F4F4F4);" parent="1" target="168" edge="1">
                    <mxGeometry relative="1" as="geometry">
                        <Array as="points">
                            <mxPoint x="350" y="-727"/>
                        </Array>
                        <mxPoint x="350" y="-862.5" as="sourcePoint"/>
                    </mxGeometry>
                </mxCell>
                <mxCell id="240" style="edgeStyle=none;html=1;entryX=0.5;entryY=0;entryDx=0;entryDy=0;strokeColor=light-dark(#F4F4F4,#F4F4F4);exitX=0.5;exitY=1;exitDx=0;exitDy=0;" parent="1" source="317" edge="1">
                    <mxGeometry relative="1" as="geometry">
                        <mxPoint x="350" y="-590" as="targetPoint"/>
                    </mxGeometry>
                </mxCell>
                <mxCell id="374" style="edgeStyle=none;html=1;strokeColor=light-dark(#F4F4F4,#F4F4F4);" parent="1" source="168" target="317" edge="1">
                    <mxGeometry relative="1" as="geometry"/>
                </mxCell>
                <mxCell id="iWyU8WZVK32kwLWzj7U2-400" style="edgeStyle=none;html=1;entryX=0.5;entryY=0;entryDx=0;entryDy=0;strokeColor=light-dark(#F4F4F4,#F4F4F4);" parent="1" source="168" target="317" edge="1">
                    <mxGeometry relative="1" as="geometry"/>
                </mxCell>
                <mxCell id="168" value="Submit/Update PR&lt;div&gt;&lt;font style=&quot;color: light-dark(rgb(0, 0, 0), rgb(24, 24, 24));&quot;&gt;(feature --&amp;gt; master)&lt;/font&gt;&lt;/div&gt;" style="rounded=1;whiteSpace=wrap;html=1;fillColor=light-dark(#B6ECF3,#B6ECF3);strokeColor=none;fontColor=light-dark(#181818,#181818);fontStyle=1" parent="1" vertex="1">
                    <mxGeometry x="270" y="-750" width="160" height="50" as="geometry"/>
                </mxCell>
                <mxCell id="255" style="edgeStyle=none;rounded=0;html=1;strokeColor=light-dark(#F4F4F4,#F4F4F4);exitX=0.5;exitY=1;exitDx=0;exitDy=0;" parent="1" source="376" edge="1">
                    <mxGeometry relative="1" as="geometry">
                        <mxPoint x="350" y="50" as="targetPoint"/>
                    </mxGeometry>
                </mxCell>
                <mxCell id="377" style="edgeStyle=none;html=1;entryX=0.5;entryY=0;entryDx=0;entryDy=0;strokeColor=light-dark(#F4F4F4,#F4F4F4);" parent="1" source="169" target="376" edge="1">
                    <mxGeometry relative="1" as="geometry"/>
                </mxCell>
                <mxCell id="169" value="Approve PR" style="rounded=1;whiteSpace=wrap;html=1;fillColor=light-dark(#B6ECF3,#B6ECF3);strokeColor=none;fontColor=light-dark(#181818,#181818);fontStyle=1" parent="1" vertex="1">
                    <mxGeometry x="270" y="-120" width="160" height="30" as="geometry"/>
                </mxCell>
                <mxCell id="319" style="edgeStyle=none;html=1;entryX=0.5;entryY=0;entryDx=0;entryDy=0;strokeColor=light-dark(#F4F4F4,#F4F4F4);" parent="1" edge="1">
                    <mxGeometry relative="1" as="geometry">
                        <mxPoint x="350" y="-560" as="sourcePoint"/>
                        <mxPoint x="350" y="-540" as="targetPoint"/>
                    </mxGeometry>
                </mxCell>
                <mxCell id="335" style="edgeStyle=none;rounded=0;html=1;entryX=0.5;entryY=0;entryDx=0;entryDy=0;strokeColor=light-dark(#F4F4F4,#F4F4F4);" parent="1" source="iWyU8WZVK32kwLWzj7U2-394" target="219" edge="1">
                    <mxGeometry relative="1" as="geometry">
                        <Array as="points"/>
                        <mxPoint x="530" y="-350" as="sourcePoint"/>
                    </mxGeometry>
                </mxCell>
                <mxCell id="333" style="edgeStyle=none;rounded=0;html=1;entryX=0.5;entryY=0;entryDx=0;entryDy=0;strokeColor=light-dark(#F4F4F4,#F4F4F4);" parent="1" target="219" edge="1">
                    <mxGeometry relative="1" as="geometry">
                        <mxPoint x="350" y="-350" as="sourcePoint"/>
                    </mxGeometry>
                </mxCell>
                <mxCell id="222" style="edgeStyle=none;rounded=0;html=1;entryX=0.5;entryY=0;entryDx=0;entryDy=0;fontColor=#f4f4f4;strokeColor=light-dark(#F4F4F4,#F4F4F4);exitX=0.5;exitY=1;exitDx=0;exitDy=0;" parent="1" source="219" target="169" edge="1">
                    <mxGeometry relative="1" as="geometry">
                        <mxPoint x="350" y="-40" as="sourcePoint"/>
                    </mxGeometry>
                </mxCell>
                <mxCell id="iWyU8WZVK32kwLWzj7U2-410" style="edgeStyle=none;html=1;strokeColor=light-dark(#F4F4F4,#F4F4F4);" parent="1" source="219" target="169" edge="1">
                    <mxGeometry relative="1" as="geometry"/>
                </mxCell>
                <mxCell id="iWyU8WZVK32kwLWzj7U2-411" style="edgeStyle=none;html=1;entryX=0;entryY=0.5;entryDx=0;entryDy=0;rounded=0;curved=0;strokeColor=light-dark(#F4F4F4,#F4F4F4);" parent="1" source="219" target="168" edge="1">
                    <mxGeometry relative="1" as="geometry">
                        <Array as="points">
                            <mxPoint x="200" y="-155"/>
                            <mxPoint x="200" y="-725"/>
                        </Array>
                    </mxGeometry>
                </mxCell>
                <mxCell id="219" value="Review PR" style="rounded=1;whiteSpace=wrap;html=1;fillColor=light-dark(#B6ECF3,#B6ECF3);strokeColor=none;fontColor=light-dark(#181818,#181818);fontStyle=1" parent="1" vertex="1">
                    <mxGeometry x="270" y="-170" width="160" height="30" as="geometry"/>
                </mxCell>
                <mxCell id="iWyU8WZVK32kwLWzj7U2-401" style="edgeStyle=none;html=1;strokeColor=light-dark(#F4F4F4,#F4F4F4);" parent="1" source="317" target="iWyU8WZVK32kwLWzj7U2-389" edge="1">
                    <mxGeometry relative="1" as="geometry"/>
                </mxCell>
                <mxCell id="317" value="Clone repo" style="rounded=1;whiteSpace=wrap;html=1;fillColor=light-dark(#A0D17B,#A0D17B);strokeColor=none;fontColor=light-dark(#181818,#181818);fontStyle=1" parent="1" vertex="1">
                    <mxGeometry x="270" y="-640" width="160" height="30" as="geometry"/>
                </mxCell>
                <mxCell id="323" style="edgeStyle=none;html=1;entryX=0.5;entryY=0;entryDx=0;entryDy=0;exitX=0.5;exitY=1;exitDx=0;exitDy=0;strokeColor=light-dark(#F4F4F4,#F4F4F4);" parent="1" edge="1">
                    <mxGeometry relative="1" as="geometry">
                        <mxPoint x="350" y="-470" as="sourcePoint"/>
                        <mxPoint x="350" y="-430" as="targetPoint"/>
                    </mxGeometry>
                </mxCell>
                <mxCell id="325" style="edgeStyle=none;html=1;entryX=0.5;entryY=0;entryDx=0;entryDy=0;strokeColor=light-dark(#F4F4F4,#F4F4F4);" parent="1" edge="1">
                    <mxGeometry relative="1" as="geometry">
                        <mxPoint x="350" y="-510" as="sourcePoint"/>
                        <mxPoint x="350" y="-490" as="targetPoint"/>
                    </mxGeometry>
                </mxCell>
                <mxCell id="329" style="edgeStyle=none;rounded=0;html=1;entryX=0.5;entryY=0;entryDx=0;entryDy=0;strokeColor=light-dark(#F4F4F4,#F4F4F4);" parent="1" edge="1">
                    <mxGeometry relative="1" as="geometry">
                        <mxPoint x="350" y="-400" as="sourcePoint"/>
                        <mxPoint x="350" y="-380" as="targetPoint"/>
                    </mxGeometry>
                </mxCell>
                <mxCell id="iWyU8WZVK32kwLWzj7U2-442" style="edgeStyle=none;html=1;strokeColor=light-dark(#F4F4F4,#F4F4F4);" parent="1" source="376" target="iWyU8WZVK32kwLWzj7U2-422" edge="1">
                    <mxGeometry relative="1" as="geometry"/>
                </mxCell>
                <mxCell id="376" value="Commit to master" style="rounded=1;whiteSpace=wrap;html=1;fillColor=light-dark(#B6ECF3,#B6ECF3);strokeColor=none;fontColor=light-dark(#181818,#181818);fontStyle=1" parent="1" vertex="1">
                    <mxGeometry x="270" y="-20" width="160" height="30" as="geometry"/>
                </mxCell>
                <mxCell id="iWyU8WZVK32kwLWzj7U2-402" style="edgeStyle=none;html=1;strokeColor=light-dark(#F4F4F4,#F4F4F4);" parent="1" source="iWyU8WZVK32kwLWzj7U2-389" target="iWyU8WZVK32kwLWzj7U2-390" edge="1">
                    <mxGeometry relative="1" as="geometry"/>
                </mxCell>
                <mxCell id="iWyU8WZVK32kwLWzj7U2-389" value="Setup" style="rounded=1;whiteSpace=wrap;html=1;fillColor=light-dark(#A0D17B,#A0D17B);strokeColor=none;fontColor=light-dark(#181818,#181818);fontStyle=1" parent="1" vertex="1">
                    <mxGeometry x="270" y="-590" width="160" height="30" as="geometry"/>
                </mxCell>
                <mxCell id="iWyU8WZVK32kwLWzj7U2-403" style="edgeStyle=none;html=1;entryX=0.5;entryY=0;entryDx=0;entryDy=0;strokeColor=light-dark(#F4F4F4,#F4F4F4);" parent="1" source="iWyU8WZVK32kwLWzj7U2-390" target="iWyU8WZVK32kwLWzj7U2-391" edge="1">
                    <mxGeometry relative="1" as="geometry"/>
                </mxCell>
                <mxCell id="iWyU8WZVK32kwLWzj7U2-390" value="Build dev image" style="rounded=1;whiteSpace=wrap;html=1;fillColor=light-dark(#A0D17B,#A0D17B);strokeColor=none;fontColor=light-dark(#181818,#181818);fontStyle=1" parent="1" vertex="1">
                    <mxGeometry x="270" y="-540" width="160" height="30" as="geometry"/>
                </mxCell>
                <mxCell id="iWyU8WZVK32kwLWzj7U2-404" style="edgeStyle=none;html=1;entryX=0.5;entryY=0;entryDx=0;entryDy=0;strokeColor=light-dark(#F4F4F4,#F4F4F4);" parent="1" source="iWyU8WZVK32kwLWzj7U2-391" target="iWyU8WZVK32kwLWzj7U2-392" edge="1">
                    <mxGeometry relative="1" as="geometry"/>
                </mxCell>
                <mxCell id="iWyU8WZVK32kwLWzj7U2-391" value="Start container" style="rounded=1;whiteSpace=wrap;html=1;fillColor=light-dark(#A0D17B,#A0D17B);strokeColor=none;fontColor=light-dark(#181818,#181818);fontStyle=1" parent="1" vertex="1">
                    <mxGeometry x="270" y="-490" width="160" height="30" as="geometry"/>
                </mxCell>
                <mxCell id="iWyU8WZVK32kwLWzj7U2-405" style="edgeStyle=none;html=1;entryX=0.5;entryY=0;entryDx=0;entryDy=0;strokeColor=light-dark(#F4F4F4,#F4F4F4);" parent="1" source="iWyU8WZVK32kwLWzj7U2-392" target="iWyU8WZVK32kwLWzj7U2-393" edge="1">
                    <mxGeometry relative="1" as="geometry"/>
                </mxCell>
                <mxCell id="iWyU8WZVK32kwLWzj7U2-392" value="Generate docs" style="rounded=1;whiteSpace=wrap;html=1;fillColor=light-dark(#A0D17B,#A0D17B);strokeColor=none;fontColor=light-dark(#181818,#181818);fontStyle=1" parent="1" vertex="1">
                    <mxGeometry x="270" y="-440" width="160" height="30" as="geometry"/>
                </mxCell>
                <mxCell id="iWyU8WZVK32kwLWzj7U2-406" style="edgeStyle=none;html=1;strokeColor=light-dark(#F4F4F4,#F4F4F4);" parent="1" source="iWyU8WZVK32kwLWzj7U2-393" target="iWyU8WZVK32kwLWzj7U2-394" edge="1">
                    <mxGeometry relative="1" as="geometry"/>
                </mxCell>
                <mxCell id="iWyU8WZVK32kwLWzj7U2-393" value="Generate code metrics" style="rounded=1;whiteSpace=wrap;html=1;fillColor=light-dark(#A0D17B,#A0D17B);strokeColor=none;fontColor=light-dark(#181818,#181818);fontStyle=1" parent="1" vertex="1">
                    <mxGeometry x="270" y="-390" width="160" height="30" as="geometry"/>
                </mxCell>
                <mxCell id="iWyU8WZVK32kwLWzj7U2-395" value="" style="edgeStyle=none;rounded=0;html=1;entryX=0.5;entryY=0;entryDx=0;entryDy=0;strokeColor=light-dark(#F4F4F4,#F4F4F4);" parent="1" source="iWyU8WZVK32kwLWzj7U2-396" target="iWyU8WZVK32kwLWzj7U2-394" edge="1">
                    <mxGeometry relative="1" as="geometry">
                        <Array as="points">
                            <mxPoint x="350" y="-330"/>
                        </Array>
                        <mxPoint x="530" y="-350" as="sourcePoint"/>
                        <mxPoint x="350" y="-280" as="targetPoint"/>
                    </mxGeometry>
                </mxCell>
                <mxCell id="iWyU8WZVK32kwLWzj7U2-407" style="edgeStyle=none;html=1;strokeColor=light-dark(#F4F4F4,#F4F4F4);" parent="1" source="iWyU8WZVK32kwLWzj7U2-394" target="iWyU8WZVK32kwLWzj7U2-396" edge="1">
                    <mxGeometry relative="1" as="geometry"/>
                </mxCell>
                <mxCell id="iWyU8WZVK32kwLWzj7U2-394" value="Generate arch diagram" style="rounded=1;whiteSpace=wrap;html=1;fillColor=light-dark(#A0D17B,#A0D17B);strokeColor=none;fontColor=light-dark(#181818,#181818);fontStyle=1" parent="1" vertex="1">
                    <mxGeometry x="270" y="-340" width="160" height="30" as="geometry"/>
                </mxCell>
                <mxCell id="iWyU8WZVK32kwLWzj7U2-408" style="edgeStyle=none;html=1;strokeColor=light-dark(#F4F4F4,#F4F4F4);" parent="1" source="iWyU8WZVK32kwLWzj7U2-396" target="iWyU8WZVK32kwLWzj7U2-399" edge="1">
                    <mxGeometry relative="1" as="geometry"/>
                </mxCell>
                <mxCell id="iWyU8WZVK32kwLWzj7U2-396" value="Lint code" style="rounded=1;whiteSpace=wrap;html=1;fillColor=light-dark(#A0D17B,#A0D17B);strokeColor=none;fontColor=light-dark(#181818,#181818);fontStyle=1" parent="1" vertex="1">
                    <mxGeometry x="270" y="-290" width="160" height="30" as="geometry"/>
                </mxCell>
                <mxCell id="iWyU8WZVK32kwLWzj7U2-409" style="edgeStyle=none;html=1;entryX=0.5;entryY=0;entryDx=0;entryDy=0;strokeColor=light-dark(#F4F4F4,#F4F4F4);" parent="1" source="iWyU8WZVK32kwLWzj7U2-399" target="219" edge="1">
                    <mxGeometry relative="1" as="geometry"/>
                </mxCell>
                <mxCell id="iWyU8WZVK32kwLWzj7U2-399" value="Run tests" style="rounded=1;whiteSpace=wrap;html=1;fillColor=light-dark(#A0D17B,#A0D17B);strokeColor=none;fontColor=light-dark(#181818,#181818);fontStyle=1" parent="1" vertex="1">
                    <mxGeometry x="270" y="-240" width="160" height="30" as="geometry"/>
                </mxCell>
                <mxCell id="iWyU8WZVK32kwLWzj7U2-417" style="edgeStyle=none;html=1;strokeColor=light-dark(#F4F4F4,#F4F4F4);" parent="1" source="iWyU8WZVK32kwLWzj7U2-415" target="376" edge="1">
                    <mxGeometry relative="1" as="geometry"/>
                </mxCell>
                <mxCell id="iWyU8WZVK32kwLWzj7U2-415" value="Merge PR" style="rounded=1;whiteSpace=wrap;html=1;fillColor=light-dark(#B6ECF3,#B6ECF3);strokeColor=none;fontColor=light-dark(#181818,#181818);fontStyle=1" parent="1" vertex="1">
                    <mxGeometry x="270" y="-70" width="160" height="30" as="geometry"/>
                </mxCell>
                <mxCell id="iWyU8WZVK32kwLWzj7U2-416" style="edgeStyle=none;html=1;strokeColor=light-dark(#F4F4F4,#F4F4F4);" parent="1" source="169" edge="1">
                    <mxGeometry relative="1" as="geometry">
                        <mxPoint x="350" y="-70" as="targetPoint"/>
                    </mxGeometry>
                </mxCell>
                <mxCell id="iWyU8WZVK32kwLWzj7U2-418" value="&amp;nbsp; Master Pipeline&amp;nbsp; &amp;nbsp; &amp;nbsp; &amp;nbsp; &amp;nbsp; &amp;nbsp; &amp;nbsp; &amp;nbsp; &amp;nbsp; &amp;nbsp; &amp;nbsp; &amp;nbsp; &amp;nbsp; &amp;nbsp; &amp;nbsp;&lt;font style=&quot;&quot;&gt;2&lt;/font&gt;" style="rounded=0;whiteSpace=wrap;html=1;fillColor=none;strokeColor=light-dark(#93B6E6,#93B6E6);fontColor=light-dark(#93B6E6,#93B6E6);fontStyle=1;dashed=1;dashPattern=8 8;align=left;verticalAlign=top;fontSize=15;" parent="1" vertex="1">
                    <mxGeometry x="220" y="30" width="260" height="590" as="geometry"/>
                </mxCell>
                <mxCell id="iWyU8WZVK32kwLWzj7U2-419" style="edgeStyle=none;html=1;entryX=0.5;entryY=0;entryDx=0;entryDy=0;strokeColor=light-dark(#F4F4F4,#F4F4F4);exitX=0.5;exitY=1;exitDx=0;exitDy=0;" parent="1" source="iWyU8WZVK32kwLWzj7U2-422" edge="1">
                    <mxGeometry relative="1" as="geometry">
                        <mxPoint x="350" y="120" as="targetPoint"/>
                    </mxGeometry>
                </mxCell>
                <mxCell id="iWyU8WZVK32kwLWzj7U2-420" style="edgeStyle=none;html=1;entryX=0.5;entryY=0;entryDx=0;entryDy=0;strokeColor=light-dark(#F4F4F4,#F4F4F4);" parent="1" edge="1">
                    <mxGeometry relative="1" as="geometry">
                        <mxPoint x="350" y="150" as="sourcePoint"/>
                        <mxPoint x="350" y="170" as="targetPoint"/>
                    </mxGeometry>
                </mxCell>
                <mxCell id="iWyU8WZVK32kwLWzj7U2-421" style="edgeStyle=none;html=1;strokeColor=light-dark(#F4F4F4,#F4F4F4);" parent="1" source="iWyU8WZVK32kwLWzj7U2-422" target="iWyU8WZVK32kwLWzj7U2-427" edge="1">
                    <mxGeometry relative="1" as="geometry"/>
                </mxCell>
                <mxCell id="iWyU8WZVK32kwLWzj7U2-422" value="Clone repo" style="rounded=1;whiteSpace=wrap;html=1;fillColor=light-dark(#A0D17B,#A0D17B);strokeColor=none;fontColor=light-dark(#181818,#181818);fontStyle=1" parent="1" vertex="1">
                    <mxGeometry x="270" y="70" width="160" height="30" as="geometry"/>
                </mxCell>
                <mxCell id="iWyU8WZVK32kwLWzj7U2-423" style="edgeStyle=none;html=1;entryX=0.5;entryY=0;entryDx=0;entryDy=0;exitX=0.5;exitY=1;exitDx=0;exitDy=0;strokeColor=light-dark(#F4F4F4,#F4F4F4);" parent="1" edge="1">
                    <mxGeometry relative="1" as="geometry">
                        <mxPoint x="350" y="240" as="sourcePoint"/>
                        <mxPoint x="350" y="280" as="targetPoint"/>
                    </mxGeometry>
                </mxCell>
                <mxCell id="iWyU8WZVK32kwLWzj7U2-424" style="edgeStyle=none;html=1;entryX=0.5;entryY=0;entryDx=0;entryDy=0;strokeColor=light-dark(#F4F4F4,#F4F4F4);" parent="1" edge="1">
                    <mxGeometry relative="1" as="geometry">
                        <mxPoint x="350" y="200" as="sourcePoint"/>
                        <mxPoint x="350" y="220" as="targetPoint"/>
                    </mxGeometry>
                </mxCell>
                <mxCell id="iWyU8WZVK32kwLWzj7U2-425" style="edgeStyle=none;rounded=0;html=1;entryX=0.5;entryY=0;entryDx=0;entryDy=0;strokeColor=light-dark(#F4F4F4,#F4F4F4);" parent="1" edge="1">
                    <mxGeometry relative="1" as="geometry">
                        <mxPoint x="350" y="310" as="sourcePoint"/>
                        <mxPoint x="350" y="330" as="targetPoint"/>
                    </mxGeometry>
                </mxCell>
                <mxCell id="iWyU8WZVK32kwLWzj7U2-426" style="edgeStyle=none;html=1;strokeColor=light-dark(#F4F4F4,#F4F4F4);" parent="1" source="iWyU8WZVK32kwLWzj7U2-427" target="iWyU8WZVK32kwLWzj7U2-429" edge="1">
                    <mxGeometry relative="1" as="geometry"/>
                </mxCell>
                <mxCell id="iWyU8WZVK32kwLWzj7U2-427" value="Setup" style="rounded=1;whiteSpace=wrap;html=1;fillColor=light-dark(#A0D17B,#A0D17B);strokeColor=none;fontColor=light-dark(#181818,#181818);fontStyle=1" parent="1" vertex="1">
                    <mxGeometry x="270" y="120" width="160" height="30" as="geometry"/>
                </mxCell>
                <mxCell id="iWyU8WZVK32kwLWzj7U2-428" style="edgeStyle=none;html=1;entryX=0.5;entryY=0;entryDx=0;entryDy=0;strokeColor=light-dark(#F4F4F4,#F4F4F4);" parent="1" source="iWyU8WZVK32kwLWzj7U2-429" target="iWyU8WZVK32kwLWzj7U2-431" edge="1">
                    <mxGeometry relative="1" as="geometry"/>
                </mxCell>
                <mxCell id="iWyU8WZVK32kwLWzj7U2-429" value="Build dev image" style="rounded=1;whiteSpace=wrap;html=1;fillColor=light-dark(#A0D17B,#A0D17B);strokeColor=none;fontColor=light-dark(#181818,#181818);fontStyle=1" parent="1" vertex="1">
                    <mxGeometry x="270" y="170" width="160" height="30" as="geometry"/>
                </mxCell>
                <mxCell id="iWyU8WZVK32kwLWzj7U2-430" style="edgeStyle=none;html=1;entryX=0.5;entryY=0;entryDx=0;entryDy=0;strokeColor=light-dark(#F4F4F4,#F4F4F4);" parent="1" source="iWyU8WZVK32kwLWzj7U2-431" target="iWyU8WZVK32kwLWzj7U2-433" edge="1">
                    <mxGeometry relative="1" as="geometry"/>
                </mxCell>
                <mxCell id="iWyU8WZVK32kwLWzj7U2-431" value="Start container" style="rounded=1;whiteSpace=wrap;html=1;fillColor=light-dark(#A0D17B,#A0D17B);strokeColor=none;fontColor=light-dark(#181818,#181818);fontStyle=1" parent="1" vertex="1">
                    <mxGeometry x="270" y="220" width="160" height="30" as="geometry"/>
                </mxCell>
                <mxCell id="iWyU8WZVK32kwLWzj7U2-432" style="edgeStyle=none;html=1;entryX=0.5;entryY=0;entryDx=0;entryDy=0;strokeColor=light-dark(#F4F4F4,#F4F4F4);" parent="1" source="iWyU8WZVK32kwLWzj7U2-433" target="iWyU8WZVK32kwLWzj7U2-435" edge="1">
                    <mxGeometry relative="1" as="geometry"/>
                </mxCell>
                <mxCell id="iWyU8WZVK32kwLWzj7U2-433" value="Version bump" style="rounded=1;whiteSpace=wrap;html=1;fillColor=light-dark(#A0D17B,#A0D17B);strokeColor=none;fontColor=light-dark(#181818,#181818);fontStyle=1" parent="1" vertex="1">
                    <mxGeometry x="270" y="270" width="160" height="30" as="geometry"/>
                </mxCell>
                <mxCell id="iWyU8WZVK32kwLWzj7U2-434" style="edgeStyle=none;html=1;strokeColor=light-dark(#F4F4F4,#F4F4F4);" parent="1" source="iWyU8WZVK32kwLWzj7U2-435" target="iWyU8WZVK32kwLWzj7U2-438" edge="1">
                    <mxGeometry relative="1" as="geometry"/>
                </mxCell>
                <mxCell id="iWyU8WZVK32kwLWzj7U2-435" value="Version" style="rounded=1;whiteSpace=wrap;html=1;fillColor=light-dark(#A0D17B,#A0D17B);strokeColor=none;fontColor=light-dark(#181818,#181818);fontStyle=1" parent="1" vertex="1">
                    <mxGeometry x="270" y="320" width="160" height="30" as="geometry"/>
                </mxCell>
                <mxCell id="iWyU8WZVK32kwLWzj7U2-436" value="" style="edgeStyle=none;rounded=0;html=1;entryX=0.5;entryY=0;entryDx=0;entryDy=0;strokeColor=light-dark(#F4F4F4,#F4F4F4);" parent="1" source="iWyU8WZVK32kwLWzj7U2-440" target="iWyU8WZVK32kwLWzj7U2-438" edge="1">
                    <mxGeometry relative="1" as="geometry">
                        <Array as="points">
                            <mxPoint x="350" y="380"/>
                        </Array>
                        <mxPoint x="530" y="360" as="sourcePoint"/>
                        <mxPoint x="350" y="430" as="targetPoint"/>
                    </mxGeometry>
                </mxCell>
                <mxCell id="iWyU8WZVK32kwLWzj7U2-437" style="edgeStyle=none;html=1;strokeColor=light-dark(#F4F4F4,#F4F4F4);" parent="1" source="iWyU8WZVK32kwLWzj7U2-438" target="iWyU8WZVK32kwLWzj7U2-440" edge="1">
                    <mxGeometry relative="1" as="geometry"/>
                </mxCell>
                <mxCell id="iWyU8WZVK32kwLWzj7U2-557" style="edgeStyle=none;html=1;entryX=0;entryY=0.5;entryDx=0;entryDy=0;rounded=0;curved=0;strokeColor=light-dark(#EBB483,#EBB483);" parent="1" source="iWyU8WZVK32kwLWzj7U2-438" target="iWyU8WZVK32kwLWzj7U2-556" edge="1">
                    <mxGeometry relative="1" as="geometry">
                        <Array as="points">
                            <mxPoint x="520" y="385"/>
                            <mxPoint x="520" y="285"/>
                        </Array>
                    </mxGeometry>
                </mxCell>
                <mxCell id="iWyU8WZVK32kwLWzj7U2-438" value="Commit new version" style="rounded=1;whiteSpace=wrap;html=1;fillColor=light-dark(#A0D17B,#A0D17B);strokeColor=none;fontColor=light-dark(#181818,#181818);fontStyle=1" parent="1" vertex="1">
                    <mxGeometry x="270" y="370" width="160" height="30" as="geometry"/>
                </mxCell>
                <mxCell id="iWyU8WZVK32kwLWzj7U2-439" style="edgeStyle=none;html=1;strokeColor=light-dark(#F4F4F4,#F4F4F4);" parent="1" source="iWyU8WZVK32kwLWzj7U2-440" target="iWyU8WZVK32kwLWzj7U2-441" edge="1">
                    <mxGeometry relative="1" as="geometry"/>
                </mxCell>
                <mxCell id="iWyU8WZVK32kwLWzj7U2-440" value="Upload pages artifact" style="rounded=1;whiteSpace=wrap;html=1;fillColor=light-dark(#A0D17B,#A0D17B);strokeColor=none;fontColor=light-dark(#181818,#181818);fontStyle=1" parent="1" vertex="1">
                    <mxGeometry x="270" y="420" width="160" height="30" as="geometry"/>
                </mxCell>
                <mxCell id="iWyU8WZVK32kwLWzj7U2-445" style="edgeStyle=none;html=1;entryX=0.5;entryY=0;entryDx=0;entryDy=0;strokeColor=light-dark(#F4F4F4,#F4F4F4);" parent="1" source="iWyU8WZVK32kwLWzj7U2-441" target="iWyU8WZVK32kwLWzj7U2-443" edge="1">
                    <mxGeometry relative="1" as="geometry"/>
                </mxCell>
                <mxCell id="iWyU8WZVK32kwLWzj7U2-450" style="edgeStyle=none;html=1;entryX=0.25;entryY=0;entryDx=0;entryDy=0;rounded=0;curved=0;strokeColor=light-dark(#EBB483,#EBB483);" parent="1" source="iWyU8WZVK32kwLWzj7U2-441" target="iWyU8WZVK32kwLWzj7U2-447" edge="1">
                    <mxGeometry relative="1" as="geometry">
                        <Array as="points">
                            <mxPoint x="600" y="485"/>
                        </Array>
                    </mxGeometry>
                </mxCell>
                <mxCell id="iWyU8WZVK32kwLWzj7U2-441" value="Push dev image" style="rounded=1;whiteSpace=wrap;html=1;fillColor=light-dark(#A0D17B,#A0D17B);strokeColor=none;fontColor=light-dark(#181818,#181818);fontStyle=1" parent="1" vertex="1">
                    <mxGeometry x="270" y="470" width="160" height="30" as="geometry"/>
                </mxCell>
                <mxCell id="iWyU8WZVK32kwLWzj7U2-446" style="edgeStyle=none;html=1;entryX=0.5;entryY=0;entryDx=0;entryDy=0;strokeColor=light-dark(#F4F4F4,#F4F4F4);" parent="1" source="iWyU8WZVK32kwLWzj7U2-443" target="iWyU8WZVK32kwLWzj7U2-444" edge="1">
                    <mxGeometry relative="1" as="geometry"/>
                </mxCell>
                <mxCell id="iWyU8WZVK32kwLWzj7U2-449" style="edgeStyle=none;html=1;entryX=0;entryY=0.5;entryDx=0;entryDy=0;strokeColor=light-dark(#EBB483,#EBB483);" parent="1" source="iWyU8WZVK32kwLWzj7U2-443" target="iWyU8WZVK32kwLWzj7U2-447" edge="1">
                    <mxGeometry relative="1" as="geometry"/>
                </mxCell>
                <mxCell id="iWyU8WZVK32kwLWzj7U2-443" value="Push dev-latest image" style="rounded=1;whiteSpace=wrap;html=1;fillColor=light-dark(#A0D17B,#A0D17B);strokeColor=none;fontColor=light-dark(#181818,#181818);fontStyle=1" parent="1" vertex="1">
                    <mxGeometry x="270" y="520" width="160" height="30" as="geometry"/>
                </mxCell>
                <mxCell id="iWyU8WZVK32kwLWzj7U2-452" style="edgeStyle=none;html=1;strokeColor=light-dark(#EBB483,#EBB483);" parent="1" source="iWyU8WZVK32kwLWzj7U2-444" target="iWyU8WZVK32kwLWzj7U2-451" edge="1">
                    <mxGeometry relative="1" as="geometry"/>
                </mxCell>
                <mxCell id="iWyU8WZVK32kwLWzj7U2-444" value="Deploy documentation" style="rounded=1;whiteSpace=wrap;html=1;fillColor=light-dark(#A0D17B,#A0D17B);strokeColor=none;fontColor=light-dark(#181818,#181818);fontStyle=1" parent="1" vertex="1">
                    <mxGeometry x="270" y="570" width="160" height="30" as="geometry"/>
                </mxCell>
                <mxCell id="iWyU8WZVK32kwLWzj7U2-447" value="Docker Registry" style="rounded=1;whiteSpace=wrap;html=1;fillColor=light-dark(#A0D17B,#EBB483);strokeColor=none;fontColor=light-dark(#181818,#181818);fontStyle=1" parent="1" vertex="1">
                    <mxGeometry x="560" y="520" width="160" height="30" as="geometry"/>
                </mxCell>
                <mxCell id="iWyU8WZVK32kwLWzj7U2-451" value="Pages" style="rounded=1;whiteSpace=wrap;html=1;fillColor=light-dark(#B6ECF3,#B6ECF3);strokeColor=none;fontColor=light-dark(#181818,#181818);fontStyle=1" parent="1" vertex="1">
                    <mxGeometry x="560" y="570" width="160" height="30" as="geometry"/>
                </mxCell>
                <mxCell id="iWyU8WZVK32kwLWzj7U2-453" value="&amp;nbsp; Prod-PR Pipeline&amp;nbsp; &amp;nbsp; &amp;nbsp; &amp;nbsp; &amp;nbsp; &amp;nbsp; &amp;nbsp; &amp;nbsp; &amp;nbsp; &amp;nbsp; &amp;nbsp; &amp;nbsp; &amp;nbsp; &amp;nbsp;&lt;font style=&quot;&quot;&gt;3&lt;/font&gt;" style="rounded=0;whiteSpace=wrap;html=1;fillColor=none;strokeColor=light-dark(#DE958E,#DE958E);fontColor=light-dark(#DE958E,#DE958E);fontStyle=1;dashed=1;dashPattern=8 8;align=left;verticalAlign=top;fontSize=15;" parent="1" vertex="1">
                    <mxGeometry x="820" y="-680" width="260" height="490" as="geometry"/>
                </mxCell>
                <mxCell id="iWyU8WZVK32kwLWzj7U2-454" style="edgeStyle=none;html=1;entryX=0.5;entryY=0;entryDx=0;entryDy=0;strokeColor=light-dark(#F4F4F4,#F4F4F4);exitX=0.5;exitY=1;exitDx=0;exitDy=0;" parent="1" source="iWyU8WZVK32kwLWzj7U2-469" edge="1">
                    <mxGeometry relative="1" as="geometry">
                        <mxPoint x="950" y="-590" as="targetPoint"/>
                    </mxGeometry>
                </mxCell>
                <mxCell id="iWyU8WZVK32kwLWzj7U2-455" style="edgeStyle=none;html=1;strokeColor=light-dark(#F4F4F4,#F4F4F4);" parent="1" source="iWyU8WZVK32kwLWzj7U2-457" target="iWyU8WZVK32kwLWzj7U2-469" edge="1">
                    <mxGeometry relative="1" as="geometry"/>
                </mxCell>
                <mxCell id="iWyU8WZVK32kwLWzj7U2-456" style="edgeStyle=none;html=1;entryX=0.5;entryY=0;entryDx=0;entryDy=0;strokeColor=light-dark(#F4F4F4,#F4F4F4);" parent="1" source="iWyU8WZVK32kwLWzj7U2-457" target="iWyU8WZVK32kwLWzj7U2-469" edge="1">
                    <mxGeometry relative="1" as="geometry"/>
                </mxCell>
                <mxCell id="iWyU8WZVK32kwLWzj7U2-457" value="&lt;span style=&quot;&quot;&gt;&lt;font style=&quot;color: light-dark(rgb(0, 0, 0), rgb(24, 24, 24));&quot;&gt;Submit/Update PR&lt;/font&gt;&lt;/span&gt;&lt;div&gt;&lt;font style=&quot;color: light-dark(rgb(0, 0, 0), rgb(24, 24, 24));&quot;&gt;(master --&amp;gt; prod)&lt;/font&gt;&lt;/div&gt;" style="rounded=1;whiteSpace=wrap;html=1;fillColor=light-dark(#B6ECF3,#B6ECF3);strokeColor=none;fontColor=light-dark(#181818,#181818);fontStyle=1" parent="1" vertex="1">
                    <mxGeometry x="870" y="-750" width="160" height="50" as="geometry"/>
                </mxCell>
                <mxCell id="iWyU8WZVK32kwLWzj7U2-458" style="edgeStyle=none;rounded=0;html=1;strokeColor=light-dark(#F4F4F4,#F4F4F4);exitX=0.5;exitY=1;exitDx=0;exitDy=0;" parent="1" source="iWyU8WZVK32kwLWzj7U2-474" edge="1">
                    <mxGeometry relative="1" as="geometry">
                        <mxPoint x="950" y="50" as="targetPoint"/>
                    </mxGeometry>
                </mxCell>
                <mxCell id="iWyU8WZVK32kwLWzj7U2-459" style="edgeStyle=none;html=1;entryX=0.5;entryY=0;entryDx=0;entryDy=0;strokeColor=light-dark(#F4F4F4,#F4F4F4);" parent="1" source="iWyU8WZVK32kwLWzj7U2-460" target="iWyU8WZVK32kwLWzj7U2-474" edge="1">
                    <mxGeometry relative="1" as="geometry"/>
                </mxCell>
                <mxCell id="iWyU8WZVK32kwLWzj7U2-460" value="Approve PR" style="rounded=1;whiteSpace=wrap;html=1;fillColor=light-dark(#B6ECF3,#B6ECF3);strokeColor=none;fontColor=light-dark(#181818,#181818);fontStyle=1" parent="1" vertex="1">
                    <mxGeometry x="870" y="-120" width="160" height="30" as="geometry"/>
                </mxCell>
                <mxCell id="iWyU8WZVK32kwLWzj7U2-461" style="edgeStyle=none;html=1;entryX=0.5;entryY=0;entryDx=0;entryDy=0;strokeColor=light-dark(#F4F4F4,#F4F4F4);" parent="1" edge="1">
                    <mxGeometry relative="1" as="geometry">
                        <mxPoint x="950" y="-560" as="sourcePoint"/>
                        <mxPoint x="950" y="-540" as="targetPoint"/>
                    </mxGeometry>
                </mxCell>
                <mxCell id="iWyU8WZVK32kwLWzj7U2-462" style="edgeStyle=none;rounded=0;html=1;entryX=0.5;entryY=0;entryDx=0;entryDy=0;strokeColor=light-dark(#F4F4F4,#F4F4F4);" parent="1" source="iWyU8WZVK32kwLWzj7U2-487" target="iWyU8WZVK32kwLWzj7U2-467" edge="1">
                    <mxGeometry relative="1" as="geometry">
                        <Array as="points"/>
                        <mxPoint x="1130" y="-350" as="sourcePoint"/>
                    </mxGeometry>
                </mxCell>
                <mxCell id="iWyU8WZVK32kwLWzj7U2-463" style="edgeStyle=none;rounded=0;html=1;entryX=0.5;entryY=0;entryDx=0;entryDy=0;strokeColor=light-dark(#F4F4F4,#F4F4F4);" parent="1" target="iWyU8WZVK32kwLWzj7U2-467" edge="1">
                    <mxGeometry relative="1" as="geometry">
                        <mxPoint x="950" y="-350" as="sourcePoint"/>
                    </mxGeometry>
                </mxCell>
                <mxCell id="iWyU8WZVK32kwLWzj7U2-464" style="edgeStyle=none;rounded=0;html=1;entryX=0.5;entryY=0;entryDx=0;entryDy=0;fontColor=#f4f4f4;strokeColor=light-dark(#F4F4F4,#F4F4F4);exitX=0.5;exitY=1;exitDx=0;exitDy=0;" parent="1" source="iWyU8WZVK32kwLWzj7U2-467" target="iWyU8WZVK32kwLWzj7U2-460" edge="1">
                    <mxGeometry relative="1" as="geometry">
                        <mxPoint x="950" y="-40" as="sourcePoint"/>
                    </mxGeometry>
                </mxCell>
                <mxCell id="iWyU8WZVK32kwLWzj7U2-465" style="edgeStyle=none;html=1;strokeColor=light-dark(#F4F4F4,#F4F4F4);" parent="1" source="iWyU8WZVK32kwLWzj7U2-467" target="iWyU8WZVK32kwLWzj7U2-460" edge="1">
                    <mxGeometry relative="1" as="geometry"/>
                </mxCell>
                <mxCell id="iWyU8WZVK32kwLWzj7U2-466" style="edgeStyle=none;html=1;entryX=0;entryY=0.5;entryDx=0;entryDy=0;rounded=0;curved=0;strokeColor=light-dark(#F4F4F4,#F4F4F4);" parent="1" source="iWyU8WZVK32kwLWzj7U2-467" target="iWyU8WZVK32kwLWzj7U2-457" edge="1">
                    <mxGeometry relative="1" as="geometry">
                        <Array as="points">
                            <mxPoint x="800" y="-155"/>
                            <mxPoint x="800" y="-725"/>
                        </Array>
                    </mxGeometry>
                </mxCell>
                <mxCell id="iWyU8WZVK32kwLWzj7U2-467" value="Review PR" style="rounded=1;whiteSpace=wrap;html=1;fillColor=light-dark(#B6ECF3,#B6ECF3);strokeColor=none;fontColor=light-dark(#181818,#181818);fontStyle=1" parent="1" vertex="1">
                    <mxGeometry x="870" y="-170" width="160" height="30" as="geometry"/>
                </mxCell>
                <mxCell id="iWyU8WZVK32kwLWzj7U2-468" style="edgeStyle=none;html=1;strokeColor=light-dark(#F4F4F4,#F4F4F4);" parent="1" source="iWyU8WZVK32kwLWzj7U2-469" target="iWyU8WZVK32kwLWzj7U2-476" edge="1">
                    <mxGeometry relative="1" as="geometry"/>
                </mxCell>
                <mxCell id="iWyU8WZVK32kwLWzj7U2-469" value="Clone repo" style="rounded=1;whiteSpace=wrap;html=1;fillColor=light-dark(#A0D17B,#A0D17B);strokeColor=none;fontColor=light-dark(#181818,#181818);fontStyle=1" parent="1" vertex="1">
                    <mxGeometry x="870" y="-640" width="160" height="30" as="geometry"/>
                </mxCell>
                <mxCell id="iWyU8WZVK32kwLWzj7U2-470" style="edgeStyle=none;html=1;entryX=0.5;entryY=0;entryDx=0;entryDy=0;exitX=0.5;exitY=1;exitDx=0;exitDy=0;strokeColor=light-dark(#F4F4F4,#F4F4F4);" parent="1" edge="1">
                    <mxGeometry relative="1" as="geometry">
                        <mxPoint x="950" y="-470" as="sourcePoint"/>
                        <mxPoint x="950" y="-430" as="targetPoint"/>
                    </mxGeometry>
                </mxCell>
                <mxCell id="iWyU8WZVK32kwLWzj7U2-471" style="edgeStyle=none;html=1;entryX=0.5;entryY=0;entryDx=0;entryDy=0;strokeColor=light-dark(#F4F4F4,#F4F4F4);" parent="1" edge="1">
                    <mxGeometry relative="1" as="geometry">
                        <mxPoint x="950" y="-510" as="sourcePoint"/>
                        <mxPoint x="950" y="-490" as="targetPoint"/>
                    </mxGeometry>
                </mxCell>
                <mxCell id="iWyU8WZVK32kwLWzj7U2-472" style="edgeStyle=none;rounded=0;html=1;entryX=0.5;entryY=0;entryDx=0;entryDy=0;strokeColor=light-dark(#F4F4F4,#F4F4F4);" parent="1" edge="1">
                    <mxGeometry relative="1" as="geometry">
                        <mxPoint x="950" y="-400" as="sourcePoint"/>
                        <mxPoint x="950" y="-380" as="targetPoint"/>
                    </mxGeometry>
                </mxCell>
                <mxCell id="iWyU8WZVK32kwLWzj7U2-473" style="edgeStyle=none;html=1;strokeColor=light-dark(#F4F4F4,#F4F4F4);" parent="1" source="iWyU8WZVK32kwLWzj7U2-474" target="iWyU8WZVK32kwLWzj7U2-499" edge="1">
                    <mxGeometry relative="1" as="geometry"/>
                </mxCell>
                <mxCell id="iWyU8WZVK32kwLWzj7U2-474" value="Commit to prod" style="rounded=1;whiteSpace=wrap;html=1;fillColor=light-dark(#B6ECF3,#B6ECF3);strokeColor=none;fontColor=light-dark(#181818,#181818);fontStyle=1" parent="1" vertex="1">
                    <mxGeometry x="870" y="-20" width="160" height="30" as="geometry"/>
                </mxCell>
                <mxCell id="iWyU8WZVK32kwLWzj7U2-475" style="edgeStyle=none;html=1;strokeColor=light-dark(#F4F4F4,#F4F4F4);" parent="1" source="iWyU8WZVK32kwLWzj7U2-476" target="iWyU8WZVK32kwLWzj7U2-478" edge="1">
                    <mxGeometry relative="1" as="geometry"/>
                </mxCell>
                <mxCell id="iWyU8WZVK32kwLWzj7U2-476" value="Setup" style="rounded=1;whiteSpace=wrap;html=1;fillColor=light-dark(#A0D17B,#A0D17B);strokeColor=none;fontColor=light-dark(#181818,#181818);fontStyle=1" parent="1" vertex="1">
                    <mxGeometry x="870" y="-590" width="160" height="30" as="geometry"/>
                </mxCell>
                <mxCell id="iWyU8WZVK32kwLWzj7U2-477" style="edgeStyle=none;html=1;entryX=0.5;entryY=0;entryDx=0;entryDy=0;strokeColor=light-dark(#F4F4F4,#F4F4F4);" parent="1" source="iWyU8WZVK32kwLWzj7U2-478" target="iWyU8WZVK32kwLWzj7U2-480" edge="1">
                    <mxGeometry relative="1" as="geometry"/>
                </mxCell>
                <mxCell id="iWyU8WZVK32kwLWzj7U2-478" value="Build dev image" style="rounded=1;whiteSpace=wrap;html=1;fillColor=light-dark(#A0D17B,#A0D17B);strokeColor=none;fontColor=light-dark(#181818,#181818);fontStyle=1" parent="1" vertex="1">
                    <mxGeometry x="870" y="-540" width="160" height="30" as="geometry"/>
                </mxCell>
                <mxCell id="iWyU8WZVK32kwLWzj7U2-479" style="edgeStyle=none;html=1;entryX=0.5;entryY=0;entryDx=0;entryDy=0;strokeColor=light-dark(#F4F4F4,#F4F4F4);" parent="1" source="iWyU8WZVK32kwLWzj7U2-480" target="iWyU8WZVK32kwLWzj7U2-482" edge="1">
                    <mxGeometry relative="1" as="geometry"/>
                </mxCell>
                <mxCell id="iWyU8WZVK32kwLWzj7U2-480" value="Start container" style="rounded=1;whiteSpace=wrap;html=1;fillColor=light-dark(#A0D17B,#A0D17B);strokeColor=none;fontColor=light-dark(#181818,#181818);fontStyle=1" parent="1" vertex="1">
                    <mxGeometry x="870" y="-490" width="160" height="30" as="geometry"/>
                </mxCell>
                <mxCell id="iWyU8WZVK32kwLWzj7U2-481" style="edgeStyle=none;html=1;entryX=0.5;entryY=0;entryDx=0;entryDy=0;strokeColor=light-dark(#F4F4F4,#F4F4F4);" parent="1" source="iWyU8WZVK32kwLWzj7U2-482" target="iWyU8WZVK32kwLWzj7U2-484" edge="1">
                    <mxGeometry relative="1" as="geometry"/>
                </mxCell>
                <mxCell id="iWyU8WZVK32kwLWzj7U2-482" value="Run prod tests" style="rounded=1;whiteSpace=wrap;html=1;fillColor=light-dark(#A0D17B,#A0D17B);strokeColor=none;fontColor=light-dark(#181818,#181818);fontStyle=1" parent="1" vertex="1">
                    <mxGeometry x="870" y="-440" width="160" height="30" as="geometry"/>
                </mxCell>
                <mxCell id="iWyU8WZVK32kwLWzj7U2-483" style="edgeStyle=none;html=1;strokeColor=light-dark(#F4F4F4,#F4F4F4);" parent="1" source="iWyU8WZVK32kwLWzj7U2-484" target="iWyU8WZVK32kwLWzj7U2-487" edge="1">
                    <mxGeometry relative="1" as="geometry"/>
                </mxCell>
                <mxCell id="iWyU8WZVK32kwLWzj7U2-529" style="edgeStyle=none;html=1;entryX=0.5;entryY=0;entryDx=0;entryDy=0;rounded=0;curved=0;strokeColor=light-dark(#EBB483,#EBB483);" parent="1" source="iWyU8WZVK32kwLWzj7U2-484" target="iWyU8WZVK32kwLWzj7U2-528" edge="1">
                    <mxGeometry relative="1" as="geometry">
                        <Array as="points">
                            <mxPoint x="640" y="-375"/>
                        </Array>
                    </mxGeometry>
                </mxCell>
                <mxCell id="iWyU8WZVK32kwLWzj7U2-484" value="Publish python package" style="rounded=1;whiteSpace=wrap;html=1;fillColor=light-dark(#A0D17B,#A0D17B);strokeColor=none;fontColor=light-dark(#181818,#181818);fontStyle=1" parent="1" vertex="1">
                    <mxGeometry x="870" y="-390" width="160" height="30" as="geometry"/>
                </mxCell>
                <mxCell id="iWyU8WZVK32kwLWzj7U2-485" value="" style="edgeStyle=none;rounded=0;html=1;entryX=0.5;entryY=0;entryDx=0;entryDy=0;strokeColor=light-dark(#F4F4F4,#F4F4F4);" parent="1" source="iWyU8WZVK32kwLWzj7U2-489" target="iWyU8WZVK32kwLWzj7U2-487" edge="1">
                    <mxGeometry relative="1" as="geometry">
                        <Array as="points">
                            <mxPoint x="950" y="-330"/>
                        </Array>
                        <mxPoint x="1130" y="-350" as="sourcePoint"/>
                        <mxPoint x="950" y="-280" as="targetPoint"/>
                    </mxGeometry>
                </mxCell>
                <mxCell id="iWyU8WZVK32kwLWzj7U2-486" style="edgeStyle=none;html=1;strokeColor=light-dark(#F4F4F4,#F4F4F4);" parent="1" source="iWyU8WZVK32kwLWzj7U2-487" target="iWyU8WZVK32kwLWzj7U2-489" edge="1">
                    <mxGeometry relative="1" as="geometry"/>
                </mxCell>
                <mxCell id="iWyU8WZVK32kwLWzj7U2-487" value="Build prod image" style="rounded=1;whiteSpace=wrap;html=1;fillColor=light-dark(#A0D17B,#A0D17B);strokeColor=none;fontColor=light-dark(#181818,#181818);fontStyle=1" parent="1" vertex="1">
                    <mxGeometry x="870" y="-340" width="160" height="30" as="geometry"/>
                </mxCell>
                <mxCell id="iWyU8WZVK32kwLWzj7U2-488" style="edgeStyle=none;html=1;entryX=0.5;entryY=0;entryDx=0;entryDy=0;strokeColor=light-dark(#F4F4F4,#F4F4F4);" parent="1" source="iWyU8WZVK32kwLWzj7U2-489" target="iWyU8WZVK32kwLWzj7U2-467" edge="1">
                    <mxGeometry relative="1" as="geometry">
                        <mxPoint x="950" y="-240" as="targetPoint"/>
                    </mxGeometry>
                </mxCell>
                <mxCell id="iWyU8WZVK32kwLWzj7U2-530" style="edgeStyle=none;html=1;rounded=0;curved=0;strokeColor=light-dark(#EBB483,#EBB483);" parent="1" source="iWyU8WZVK32kwLWzj7U2-489" target="iWyU8WZVK32kwLWzj7U2-528" edge="1">
                    <mxGeometry relative="1" as="geometry"/>
                </mxCell>
                <mxCell id="iWyU8WZVK32kwLWzj7U2-489" value="Unpublish python package" style="rounded=1;whiteSpace=wrap;html=1;fillColor=light-dark(#A0D17B,#A0D17B);strokeColor=none;fontColor=light-dark(#181818,#181818);fontStyle=1" parent="1" vertex="1">
                    <mxGeometry x="870" y="-290" width="160" height="30" as="geometry"/>
                </mxCell>
                <mxCell id="iWyU8WZVK32kwLWzj7U2-492" style="edgeStyle=none;html=1;strokeColor=light-dark(#F4F4F4,#F4F4F4);" parent="1" source="iWyU8WZVK32kwLWzj7U2-493" target="iWyU8WZVK32kwLWzj7U2-474" edge="1">
                    <mxGeometry relative="1" as="geometry"/>
                </mxCell>
                <mxCell id="iWyU8WZVK32kwLWzj7U2-493" value="Merge PR" style="rounded=1;whiteSpace=wrap;html=1;fillColor=light-dark(#B6ECF3,#B6ECF3);strokeColor=none;fontColor=light-dark(#181818,#181818);fontStyle=1" parent="1" vertex="1">
                    <mxGeometry x="870" y="-70" width="160" height="30" as="geometry"/>
                </mxCell>
                <mxCell id="iWyU8WZVK32kwLWzj7U2-494" style="edgeStyle=none;html=1;strokeColor=light-dark(#F4F4F4,#F4F4F4);" parent="1" source="iWyU8WZVK32kwLWzj7U2-460" edge="1">
                    <mxGeometry relative="1" as="geometry">
                        <mxPoint x="950" y="-70" as="targetPoint"/>
                    </mxGeometry>
                </mxCell>
                <mxCell id="iWyU8WZVK32kwLWzj7U2-495" value="&amp;nbsp; Prod Pipeline&amp;nbsp; &amp;nbsp; &amp;nbsp; &amp;nbsp; &amp;nbsp; &amp;nbsp; &amp;nbsp; &amp;nbsp; &amp;nbsp; &amp;nbsp; &amp;nbsp; &amp;nbsp; &amp;nbsp; &amp;nbsp; &amp;nbsp; &amp;nbsp; &amp;nbsp;&lt;font style=&quot;&quot;&gt;4&lt;/font&gt;" style="rounded=0;whiteSpace=wrap;html=1;fillColor=none;strokeColor=light-dark(#DE958E,#DE958E);fontColor=light-dark(#DE958E,#DE958E);fontStyle=1;dashed=1;dashPattern=8 8;align=left;verticalAlign=top;fontSize=15;" parent="1" vertex="1">
                    <mxGeometry x="820" y="30" width="260" height="590" as="geometry"/>
                </mxCell>
                <mxCell id="iWyU8WZVK32kwLWzj7U2-496" style="edgeStyle=none;html=1;entryX=0.5;entryY=0;entryDx=0;entryDy=0;strokeColor=light-dark(#F4F4F4,#F4F4F4);exitX=0.5;exitY=1;exitDx=0;exitDy=0;" parent="1" source="iWyU8WZVK32kwLWzj7U2-499" edge="1">
                    <mxGeometry relative="1" as="geometry">
                        <mxPoint x="950" y="120" as="targetPoint"/>
                    </mxGeometry>
                </mxCell>
                <mxCell id="iWyU8WZVK32kwLWzj7U2-497" style="edgeStyle=none;html=1;entryX=0.5;entryY=0;entryDx=0;entryDy=0;strokeColor=light-dark(#F4F4F4,#F4F4F4);" parent="1" edge="1">
                    <mxGeometry relative="1" as="geometry">
                        <mxPoint x="950" y="150" as="sourcePoint"/>
                        <mxPoint x="950" y="170" as="targetPoint"/>
                    </mxGeometry>
                </mxCell>
                <mxCell id="iWyU8WZVK32kwLWzj7U2-498" style="edgeStyle=none;html=1;strokeColor=light-dark(#F4F4F4,#F4F4F4);" parent="1" source="iWyU8WZVK32kwLWzj7U2-499" target="iWyU8WZVK32kwLWzj7U2-504" edge="1">
                    <mxGeometry relative="1" as="geometry"/>
                </mxCell>
                <mxCell id="iWyU8WZVK32kwLWzj7U2-499" value="Clone repo" style="rounded=1;whiteSpace=wrap;html=1;fillColor=light-dark(#A0D17B,#A0D17B);strokeColor=none;fontColor=light-dark(#181818,#181818);fontStyle=1" parent="1" vertex="1">
                    <mxGeometry x="870" y="70" width="160" height="30" as="geometry"/>
                </mxCell>
                <mxCell id="iWyU8WZVK32kwLWzj7U2-500" style="edgeStyle=none;html=1;entryX=0.5;entryY=0;entryDx=0;entryDy=0;exitX=0.5;exitY=1;exitDx=0;exitDy=0;strokeColor=light-dark(#F4F4F4,#F4F4F4);" parent="1" edge="1">
                    <mxGeometry relative="1" as="geometry">
                        <mxPoint x="950" y="240" as="sourcePoint"/>
                        <mxPoint x="950" y="280" as="targetPoint"/>
                    </mxGeometry>
                </mxCell>
                <mxCell id="iWyU8WZVK32kwLWzj7U2-501" style="edgeStyle=none;html=1;entryX=0.5;entryY=0;entryDx=0;entryDy=0;strokeColor=light-dark(#F4F4F4,#F4F4F4);" parent="1" edge="1">
                    <mxGeometry relative="1" as="geometry">
                        <mxPoint x="950" y="200" as="sourcePoint"/>
                        <mxPoint x="950" y="220" as="targetPoint"/>
                    </mxGeometry>
                </mxCell>
                <mxCell id="iWyU8WZVK32kwLWzj7U2-502" style="edgeStyle=none;rounded=0;html=1;entryX=0.5;entryY=0;entryDx=0;entryDy=0;strokeColor=light-dark(#F4F4F4,#F4F4F4);" parent="1" edge="1">
                    <mxGeometry relative="1" as="geometry">
                        <mxPoint x="950" y="310" as="sourcePoint"/>
                        <mxPoint x="950" y="330" as="targetPoint"/>
                    </mxGeometry>
                </mxCell>
                <mxCell id="iWyU8WZVK32kwLWzj7U2-503" style="edgeStyle=none;html=1;strokeColor=light-dark(#F4F4F4,#F4F4F4);" parent="1" source="iWyU8WZVK32kwLWzj7U2-504" target="iWyU8WZVK32kwLWzj7U2-506" edge="1">
                    <mxGeometry relative="1" as="geometry"/>
                </mxCell>
                <mxCell id="iWyU8WZVK32kwLWzj7U2-504" value="Setup" style="rounded=1;whiteSpace=wrap;html=1;fillColor=light-dark(#A0D17B,#A0D17B);strokeColor=none;fontColor=light-dark(#181818,#181818);fontStyle=1" parent="1" vertex="1">
                    <mxGeometry x="870" y="120" width="160" height="30" as="geometry"/>
                </mxCell>
                <mxCell id="iWyU8WZVK32kwLWzj7U2-505" style="edgeStyle=none;html=1;entryX=0.5;entryY=0;entryDx=0;entryDy=0;strokeColor=light-dark(#F4F4F4,#F4F4F4);" parent="1" source="iWyU8WZVK32kwLWzj7U2-506" target="iWyU8WZVK32kwLWzj7U2-508" edge="1">
                    <mxGeometry relative="1" as="geometry"/>
                </mxCell>
                <mxCell id="iWyU8WZVK32kwLWzj7U2-506" value="Build dev image" style="rounded=1;whiteSpace=wrap;html=1;fillColor=light-dark(#A0D17B,#A0D17B);strokeColor=none;fontColor=light-dark(#181818,#181818);fontStyle=1" parent="1" vertex="1">
                    <mxGeometry x="870" y="170" width="160" height="30" as="geometry"/>
                </mxCell>
                <mxCell id="iWyU8WZVK32kwLWzj7U2-507" style="edgeStyle=none;html=1;entryX=0.5;entryY=0;entryDx=0;entryDy=0;strokeColor=light-dark(#F4F4F4,#F4F4F4);" parent="1" source="iWyU8WZVK32kwLWzj7U2-508" target="iWyU8WZVK32kwLWzj7U2-510" edge="1">
                    <mxGeometry relative="1" as="geometry"/>
                </mxCell>
                <mxCell id="iWyU8WZVK32kwLWzj7U2-508" value="Start container" style="rounded=1;whiteSpace=wrap;html=1;fillColor=light-dark(#A0D17B,#A0D17B);strokeColor=none;fontColor=light-dark(#181818,#181818);fontStyle=1" parent="1" vertex="1">
                    <mxGeometry x="870" y="220" width="160" height="30" as="geometry"/>
                </mxCell>
                <mxCell id="iWyU8WZVK32kwLWzj7U2-509" style="edgeStyle=none;html=1;entryX=0.5;entryY=0;entryDx=0;entryDy=0;strokeColor=light-dark(#F4F4F4,#F4F4F4);" parent="1" source="iWyU8WZVK32kwLWzj7U2-510" target="iWyU8WZVK32kwLWzj7U2-512" edge="1">
                    <mxGeometry relative="1" as="geometry"/>
                </mxCell>
                <mxCell id="iWyU8WZVK32kwLWzj7U2-510" value="Run prod tests" style="rounded=1;whiteSpace=wrap;html=1;fillColor=light-dark(#A0D17B,#A0D17B);strokeColor=none;fontColor=light-dark(#181818,#181818);fontStyle=1" parent="1" vertex="1">
                    <mxGeometry x="870" y="270" width="160" height="30" as="geometry"/>
                </mxCell>
                <mxCell id="iWyU8WZVK32kwLWzj7U2-511" style="edgeStyle=none;html=1;strokeColor=light-dark(#F4F4F4,#F4F4F4);" parent="1" source="iWyU8WZVK32kwLWzj7U2-512" target="iWyU8WZVK32kwLWzj7U2-515" edge="1">
                    <mxGeometry relative="1" as="geometry"/>
                </mxCell>
                <mxCell id="iWyU8WZVK32kwLWzj7U2-533" style="edgeStyle=none;html=1;entryX=1;entryY=0.5;entryDx=0;entryDy=0;rounded=0;curved=0;strokeColor=light-dark(#EBB483,#EBB483);" parent="1" source="iWyU8WZVK32kwLWzj7U2-512" target="iWyU8WZVK32kwLWzj7U2-532" edge="1">
                    <mxGeometry relative="1" as="geometry"/>
                </mxCell>
                <mxCell id="iWyU8WZVK32kwLWzj7U2-512" value="Publish python package" style="rounded=1;whiteSpace=wrap;html=1;fillColor=light-dark(#A0D17B,#A0D17B);strokeColor=none;fontColor=light-dark(#181818,#181818);fontStyle=1" parent="1" vertex="1">
                    <mxGeometry x="870" y="320" width="160" height="30" as="geometry"/>
                </mxCell>
                <mxCell id="iWyU8WZVK32kwLWzj7U2-513" value="" style="edgeStyle=none;rounded=0;html=1;entryX=0.5;entryY=0;entryDx=0;entryDy=0;strokeColor=light-dark(#F4F4F4,#F4F4F4);" parent="1" source="iWyU8WZVK32kwLWzj7U2-517" target="iWyU8WZVK32kwLWzj7U2-515" edge="1">
                    <mxGeometry relative="1" as="geometry">
                        <Array as="points">
                            <mxPoint x="950" y="380"/>
                        </Array>
                        <mxPoint x="1130" y="360" as="sourcePoint"/>
                        <mxPoint x="950" y="430" as="targetPoint"/>
                    </mxGeometry>
                </mxCell>
                <mxCell id="iWyU8WZVK32kwLWzj7U2-514" style="edgeStyle=none;html=1;strokeColor=light-dark(#F4F4F4,#F4F4F4);" parent="1" source="iWyU8WZVK32kwLWzj7U2-515" target="iWyU8WZVK32kwLWzj7U2-517" edge="1">
                    <mxGeometry relative="1" as="geometry"/>
                </mxCell>
                <mxCell id="iWyU8WZVK32kwLWzj7U2-515" value="Build prod image" style="rounded=1;whiteSpace=wrap;html=1;fillColor=light-dark(#A0D17B,#A0D17B);strokeColor=none;fontColor=light-dark(#181818,#181818);fontStyle=1" parent="1" vertex="1">
                    <mxGeometry x="870" y="370" width="160" height="30" as="geometry"/>
                </mxCell>
                <mxCell id="iWyU8WZVK32kwLWzj7U2-516" style="edgeStyle=none;html=1;strokeColor=light-dark(#F4F4F4,#F4F4F4);" parent="1" source="iWyU8WZVK32kwLWzj7U2-517" target="iWyU8WZVK32kwLWzj7U2-520" edge="1">
                    <mxGeometry relative="1" as="geometry"/>
                </mxCell>
                <mxCell id="iWyU8WZVK32kwLWzj7U2-535" style="edgeStyle=none;html=1;entryX=0.5;entryY=0;entryDx=0;entryDy=0;exitX=0;exitY=0.5;exitDx=0;exitDy=0;rounded=0;curved=0;strokeColor=light-dark(#EBB483,#EBB483);" parent="1" source="iWyU8WZVK32kwLWzj7U2-517" target="iWyU8WZVK32kwLWzj7U2-447" edge="1">
                    <mxGeometry relative="1" as="geometry">
                        <Array as="points">
                            <mxPoint x="640" y="435"/>
                        </Array>
                    </mxGeometry>
                </mxCell>
                <mxCell id="iWyU8WZVK32kwLWzj7U2-517" value="Push prod image" style="rounded=1;whiteSpace=wrap;html=1;fillColor=light-dark(#A0D17B,#A0D17B);strokeColor=none;fontColor=light-dark(#181818,#181818);fontStyle=1" parent="1" vertex="1">
                    <mxGeometry x="870" y="420" width="160" height="30" as="geometry"/>
                </mxCell>
                <mxCell id="iWyU8WZVK32kwLWzj7U2-518" style="edgeStyle=none;html=1;entryX=0.5;entryY=0;entryDx=0;entryDy=0;strokeColor=light-dark(#F4F4F4,#F4F4F4);" parent="1" source="iWyU8WZVK32kwLWzj7U2-520" target="iWyU8WZVK32kwLWzj7U2-523" edge="1">
                    <mxGeometry relative="1" as="geometry"/>
                </mxCell>
                <mxCell id="iWyU8WZVK32kwLWzj7U2-536" style="edgeStyle=none;html=1;rounded=0;curved=0;strokeColor=light-dark(#EBB483,#EBB483);" parent="1" source="iWyU8WZVK32kwLWzj7U2-520" edge="1">
                    <mxGeometry relative="1" as="geometry">
                        <mxPoint x="680" y="520" as="targetPoint"/>
                        <Array as="points">
                            <mxPoint x="680" y="485"/>
                        </Array>
                    </mxGeometry>
                </mxCell>
                <mxCell id="iWyU8WZVK32kwLWzj7U2-520" value="Push prod-latest image" style="rounded=1;whiteSpace=wrap;html=1;fillColor=light-dark(#A0D17B,#A0D17B);strokeColor=none;fontColor=light-dark(#181818,#181818);fontStyle=1" parent="1" vertex="1">
                    <mxGeometry x="870" y="470" width="160" height="30" as="geometry"/>
                </mxCell>
                <mxCell id="iWyU8WZVK32kwLWzj7U2-538" style="edgeStyle=none;html=1;entryX=1;entryY=0.5;entryDx=0;entryDy=0;rounded=0;curved=0;strokeColor=light-dark(#EBB483,#EBB483);" parent="1" source="iWyU8WZVK32kwLWzj7U2-523" target="iWyU8WZVK32kwLWzj7U2-537" edge="1">
                    <mxGeometry relative="1" as="geometry">
                        <Array as="points">
                            <mxPoint x="950" y="635"/>
                        </Array>
                    </mxGeometry>
                </mxCell>
                <mxCell id="iWyU8WZVK32kwLWzj7U2-523" value="Deploy release" style="rounded=1;whiteSpace=wrap;html=1;fillColor=light-dark(#A0D17B,#A0D17B);strokeColor=none;fontColor=light-dark(#181818,#181818);fontStyle=1" parent="1" vertex="1">
                    <mxGeometry x="870" y="520" width="160" height="30" as="geometry"/>
                </mxCell>
                <mxCell id="iWyU8WZVK32kwLWzj7U2-531" style="edgeStyle=none;html=1;entryX=0;entryY=0.5;entryDx=0;entryDy=0;exitX=0.75;exitY=0;exitDx=0;exitDy=0;rounded=0;curved=0;strokeColor=light-dark(#EBB483,#EBB483);" parent="1" source="iWyU8WZVK32kwLWzj7U2-528" target="iWyU8WZVK32kwLWzj7U2-487" edge="1">
                    <mxGeometry relative="1" as="geometry">
                        <Array as="points">
                            <mxPoint x="680" y="-325"/>
                        </Array>
                    </mxGeometry>
                </mxCell>
                <mxCell id="iWyU8WZVK32kwLWzj7U2-528" value="Test PyPI Registry" style="rounded=1;whiteSpace=wrap;html=1;fillColor=light-dark(#A0D17B,#EBB483);strokeColor=none;fontColor=light-dark(#181818,#181818);fontStyle=1" parent="1" vertex="1">
                    <mxGeometry x="560" y="-290" width="160" height="30" as="geometry"/>
                </mxCell>
                <mxCell id="iWyU8WZVK32kwLWzj7U2-534" style="edgeStyle=none;html=1;entryX=0;entryY=0.5;entryDx=0;entryDy=0;rounded=0;curved=0;strokeColor=light-dark(#EBB483,#EBB483);" parent="1" source="iWyU8WZVK32kwLWzj7U2-532" target="iWyU8WZVK32kwLWzj7U2-515" edge="1">
                    <mxGeometry relative="1" as="geometry">
                        <Array as="points">
                            <mxPoint x="640" y="385"/>
                        </Array>
                    </mxGeometry>
                </mxCell>
                <mxCell id="iWyU8WZVK32kwLWzj7U2-532" value="PyPI Registry" style="rounded=1;whiteSpace=wrap;html=1;fillColor=light-dark(#A0D17B,#EBB483);strokeColor=none;fontColor=light-dark(#181818,#181818);fontStyle=1" parent="1" vertex="1">
                    <mxGeometry x="560" y="320" width="160" height="30" as="geometry"/>
                </mxCell>
                <mxCell id="iWyU8WZVK32kwLWzj7U2-537" value="Release" style="rounded=1;whiteSpace=wrap;html=1;fillColor=light-dark(#B6ECF3,#B6ECF3);strokeColor=none;fontColor=light-dark(#181818,#181818);fontStyle=1" parent="1" vertex="1">
                    <mxGeometry x="560" y="620" width="160" height="30" as="geometry"/>
                </mxCell>
                <mxCell id="iWyU8WZVK32kwLWzj7U2-542" style="edgeStyle=none;html=1;rounded=0;curved=0;exitX=0.5;exitY=1;exitDx=0;exitDy=0;strokeColor=light-dark(#F4F4F4,#F4F4F4);" parent="1" source="iWyU8WZVK32kwLWzj7U2-540" target="iWyU8WZVK32kwLWzj7U2-541" edge="1">
                    <mxGeometry relative="1" as="geometry">
                        <Array as="points">
                            <mxPoint x="640" y="-1090"/>
                            <mxPoint x="350" y="-1090"/>
                        </Array>
                    </mxGeometry>
                </mxCell>
                <mxCell id="iWyU8WZVK32kwLWzj7U2-555" style="edgeStyle=none;html=1;entryX=0.5;entryY=0;entryDx=0;entryDy=0;exitX=0.5;exitY=1;exitDx=0;exitDy=0;rounded=0;curved=0;strokeColor=light-dark(#F4F4F4,#F4F4F4);" parent="1" source="iWyU8WZVK32kwLWzj7U2-540" target="iWyU8WZVK32kwLWzj7U2-457" edge="1">
                    <mxGeometry relative="1" as="geometry">
                        <Array as="points">
                            <mxPoint x="640" y="-1090"/>
                            <mxPoint x="950" y="-1090"/>
                        </Array>
                    </mxGeometry>
                </mxCell>
                <mxCell id="iWyU8WZVK32kwLWzj7U2-540" value="Developer" style="rounded=1;whiteSpace=wrap;html=1;fillColor=light-dark(#A0D17B,#DE958E);strokeColor=none;fontColor=light-dark(#181818,#181818);fontStyle=1" parent="1" vertex="1">
                    <mxGeometry x="560" y="-1150" width="160" height="30" as="geometry"/>
                </mxCell>
                <mxCell id="iWyU8WZVK32kwLWzj7U2-546" style="edgeStyle=none;html=1;entryX=0.5;entryY=0;entryDx=0;entryDy=0;strokeColor=light-dark(#F4F4F4,#F4F4F4);" parent="1" source="iWyU8WZVK32kwLWzj7U2-541" target="iWyU8WZVK32kwLWzj7U2-544" edge="1">
                    <mxGeometry relative="1" as="geometry"/>
                </mxCell>
                <mxCell id="iWyU8WZVK32kwLWzj7U2-541" value="Create feature branch" style="rounded=1;whiteSpace=wrap;html=1;fillColor=light-dark(#B6ECF3,#B6ECF3);strokeColor=none;fontColor=light-dark(#181818,#181818);fontStyle=1" parent="1" vertex="1">
                    <mxGeometry x="270" y="-1059" width="160" height="30" as="geometry"/>
                </mxCell>
                <mxCell id="iWyU8WZVK32kwLWzj7U2-547" style="edgeStyle=none;html=1;entryX=0.5;entryY=0;entryDx=0;entryDy=0;strokeColor=light-dark(#F4F4F4,#F4F4F4);" parent="1" source="iWyU8WZVK32kwLWzj7U2-544" target="iWyU8WZVK32kwLWzj7U2-545" edge="1">
                    <mxGeometry relative="1" as="geometry"/>
                </mxCell>
                <mxCell id="iWyU8WZVK32kwLWzj7U2-544" value="Checkout branch" style="rounded=1;whiteSpace=wrap;html=1;fillColor=light-dark(#A0D17B,#DE958E);strokeColor=none;fontColor=light-dark(#181818,#181818);fontStyle=1" parent="1" vertex="1">
                    <mxGeometry x="270" y="-1005" width="160" height="30" as="geometry"/>
                </mxCell>
                <mxCell id="iWyU8WZVK32kwLWzj7U2-551" style="edgeStyle=none;html=1;entryX=0;entryY=0.5;entryDx=0;entryDy=0;rounded=0;curved=0;strokeColor=light-dark(#F4F4F4,#F4F4F4);" parent="1" source="iWyU8WZVK32kwLWzj7U2-545" target="iWyU8WZVK32kwLWzj7U2-548" edge="1">
                    <mxGeometry relative="1" as="geometry">
                        <Array as="points">
                            <mxPoint x="350" y="-885"/>
                        </Array>
                    </mxGeometry>
                </mxCell>
                <mxCell id="iWyU8WZVK32kwLWzj7U2-552" style="edgeStyle=none;html=1;entryX=0;entryY=0.5;entryDx=0;entryDy=0;rounded=0;curved=0;strokeColor=light-dark(#F4F4F4,#F4F4F4);" parent="1" source="iWyU8WZVK32kwLWzj7U2-545" target="iWyU8WZVK32kwLWzj7U2-550" edge="1">
                    <mxGeometry relative="1" as="geometry">
                        <Array as="points">
                            <mxPoint x="350" y="-835"/>
                        </Array>
                    </mxGeometry>
                </mxCell>
                <mxCell id="iWyU8WZVK32kwLWzj7U2-553" style="edgeStyle=none;html=1;entryX=0;entryY=0.5;entryDx=0;entryDy=0;rounded=0;curved=0;strokeColor=light-dark(#F4F4F4,#F4F4F4);" parent="1" source="iWyU8WZVK32kwLWzj7U2-545" target="iWyU8WZVK32kwLWzj7U2-549" edge="1">
                    <mxGeometry relative="1" as="geometry">
                        <Array as="points">
                            <mxPoint x="350" y="-785"/>
                        </Array>
                    </mxGeometry>
                </mxCell>
                <mxCell id="iWyU8WZVK32kwLWzj7U2-554" style="edgeStyle=none;html=1;entryX=0.5;entryY=0;entryDx=0;entryDy=0;strokeColor=light-dark(#F4F4F4,#F4F4F4);" parent="1" source="iWyU8WZVK32kwLWzj7U2-545" target="168" edge="1">
                    <mxGeometry relative="1" as="geometry"/>
                </mxCell>
                <mxCell id="iWyU8WZVK32kwLWzj7U2-545" value="Make commits" style="rounded=1;whiteSpace=wrap;html=1;fillColor=light-dark(#A0D17B,#DE958E);strokeColor=none;fontColor=light-dark(#181818,#181818);fontStyle=1" parent="1" vertex="1">
                    <mxGeometry x="270" y="-952.5" width="160" height="30" as="geometry"/>
                </mxCell>
                <mxCell id="iWyU8WZVK32kwLWzj7U2-548" value="Run tests" style="rounded=1;whiteSpace=wrap;html=1;fillColor=light-dark(#A0D17B,#DE958E);strokeColor=none;fontColor=light-dark(#181818,#181818);fontStyle=1" parent="1" vertex="1">
                    <mxGeometry x="390" y="-900" width="160" height="30" as="geometry"/>
                </mxCell>
                <mxCell id="iWyU8WZVK32kwLWzj7U2-549" value="Generate docs" style="rounded=1;whiteSpace=wrap;html=1;fillColor=light-dark(#A0D17B,#DE958E);strokeColor=none;fontColor=light-dark(#181818,#181818);fontStyle=1" parent="1" vertex="1">
                    <mxGeometry x="390" y="-800" width="160" height="30" as="geometry"/>
                </mxCell>
                <mxCell id="iWyU8WZVK32kwLWzj7U2-550" value="Lint code" style="rounded=1;whiteSpace=wrap;html=1;fillColor=light-dark(#A0D17B,#DE958E);strokeColor=none;fontColor=light-dark(#181818,#181818);fontStyle=1" parent="1" vertex="1">
                    <mxGeometry x="390" y="-850" width="160" height="30" as="geometry"/>
                </mxCell>
                <mxCell id="iWyU8WZVK32kwLWzj7U2-556" value="Git history" style="rounded=1;whiteSpace=wrap;html=1;fillColor=light-dark(#B6ECF3,#B6ECF3);strokeColor=none;fontColor=light-dark(#181818,#181818);fontStyle=1" parent="1" vertex="1">
                    <mxGeometry x="560" y="270" width="160" height="30" as="geometry"/>
                </mxCell>
                <mxCell id="iWyU8WZVK32kwLWzj7U2-558" value="Git Host" style="rounded=1;whiteSpace=wrap;html=1;fillColor=light-dark(#B6ECF3,#B6ECF3);strokeColor=none;fontColor=light-dark(#181818,#181818);fontStyle=1" parent="1" vertex="1">
                    <mxGeometry x="1010" y="-1060" width="160" height="30" as="geometry"/>
                </mxCell>
                <mxCell id="iWyU8WZVK32kwLWzj7U2-559" value="CI" style="rounded=1;whiteSpace=wrap;html=1;fillColor=light-dark(#A0D17B,#A0D17B);strokeColor=none;fontColor=light-dark(#181818,#181818);fontStyle=1" parent="1" vertex="1">
                    <mxGeometry x="1010" y="-1010" width="160" height="30" as="geometry"/>
                </mxCell>
                <mxCell id="iWyU8WZVK32kwLWzj7U2-560" value="Registry" style="rounded=1;whiteSpace=wrap;html=1;fillColor=light-dark(#A0D17B,#EBB483);strokeColor=none;fontColor=light-dark(#181818,#181818);fontStyle=1" parent="1" vertex="1">
                    <mxGeometry x="1010" y="-960" width="160" height="30" as="geometry"/>
                </mxCell>
                <mxCell id="iWyU8WZVK32kwLWzj7U2-561" value="Local" style="rounded=1;whiteSpace=wrap;html=1;fillColor=light-dark(#A0D17B,#DE958E);strokeColor=none;fontColor=light-dark(#181818,#181818);fontStyle=1" parent="1" vertex="1">
                    <mxGeometry x="1010" y="-1110" width="160" height="30" as="geometry"/>
                </mxCell>
            </root>
        </mxGraphModel>
    </diagram>
</mxfile>
